@startuml
'https://plantuml.com/class-diagram

package Aggregate-Buch <<Rectangle>> {
  class Buch <root entity>
  class AutorID <value>
  class BuchID <value>
  class Kapitel <entity>
  class KapitelID <value>
  enum Status <value>


  Buch o-- Kapitel
  Buch o-- AutorID
  Buch --> BuchID
  Kapitel --> Status
  Kapitel -->KapitelID
  Buch --> Status

}

hide members
@enduml


'Aggregation:ist eine (besteht aus)-Beziehung zwischen zwei voneinander unabhängige Klassen (nicht gefülltes Pfile)
'--Pc hat eine Tastatur, und eine Tastatur gehört zu genau einem Pc. 1-1-Beziehung
'
'Composition:Ist ein SonderFall der Aggregation. Hier zwischen zwei voneinander abhängige Klassen (gefülltes Pfile)
'--Pc hat einen LieferSchein. existiert Pc nicht => existiert LieferSchein nicht
